<?xml version="1.0" standalone="no"?>
<!DOCTYPE svg PUBLIC "-//W3C//DTD SVG 20010904//EN"
 "http://www.w3.org/TR/2001/REC-SVG-20010904/DTD/svg10.dtd">
<svg version="1.0" xmlns="http://www.w3.org/2000/svg"
 width="192.000000pt" height="192.000000pt" viewBox="0 0 192.000000 192.000000"
 preserveAspectRatio="xMidYMid meet">

<g transform="translate(0.000000,192.000000) scale(0.100000,-0.100000)"
fill="#000000" stroke="none">
<path d="M770 1901 c-256 -55 -479 -209 -619 -426 -244 -380 -184 -887 141
-1201 435 -421 1136 -344 1469 160 294 445 165 1045 -286 1335 -204 131 -472
181 -705 132z m435 -96 c290 -85 512 -307 601 -600 25 -82 28 -105 28 -245 0
-140 -3 -163 -28 -245 -89 -292 -309 -512 -601 -601 -82 -25 -105 -28 -245
-28 -140 0 -163 3 -245 28 -483 147 -743 642 -590 1123 81 254 304 477 559
558 117 38 168 44 306 40 98 -3 144 -9 215 -30z"/>
<path d="M738 1440 c-37 -29 -53 -98 -53 -230 1 -164 29 -240 88 -240 60 0 91
84 91 245 0 123 -14 186 -49 221 -29 29 -45 30 -77 4z"/>
<path d="M1113 1448 c-37 -18 -56 -82 -61 -204 -7 -179 24 -274 88 -274 60 0
90 82 90 249 0 116 -19 191 -57 220 -29 24 -30 24 -60 9z"/>
<path d="M1461 952 c-6 -12 -6 -33 0 -61 9 -40 7 -45 -23 -84 -116 -151 -201
-226 -314 -279 -61 -29 -79 -33 -154 -33 -75 0 -93 4 -153 32 -38 18 -80 42
-95 53 -55 43 -146 137 -189 197 -43 61 -44 63 -32 102 14 46 7 71 -19 71 -13
0 -22 -12 -31 -40 -15 -50 -41 -65 -83 -51 -47 17 -68 14 -68 -9 0 -24 47 -50
92 -50 28 0 37 -7 63 -48 42 -67 177 -205 244 -249 175 -117 368 -116 546 2
72 48 163 136 234 228 52 66 53 67 101 67 51 0 77 18 66 45 -5 13 -15 15 -48
10 -57 -8 -80 9 -87 66 -7 48 -32 64 -50 31z"/>
</g>
</svg>
